<svg width="1500" height="309" viewBox="0 0 1500 309" fill="none" xmlns="http://www.w3.org/2000/svg">
<path d="M912.277 233.401C920.112 226.69 927.922 219.954 935.949 213.479C936.989 212.615 938.029 211.78 939.098 210.959C959.064 194.86 980.084 179.904 1002.69 167.702C1004.08 166.955 1005.5 166.237 1006.94 165.549C1046.97 144.763 1092.22 133.674 1137.41 135.93C1181.05 138.025 1223.54 152.659 1260.32 176.008C1272.16 182.849 1281.59 192.956 1293.08 200.295C1294.95 187.99 1296.23 175.583 1299.14 163.469C1305.42 138.552 1315.65 114.558 1330.22 93.3323C1343.86 74.1133 1360.75 57.2823 1379.56 43.1173C1414.07 17.4973 1456.88 2.45333 1500 3.15633V308.547H0V23.2253C20.083 12.7073 41.997 5.91131 64.424 2.73231C82.031 -0.871686 100.049 0.183307 117.905 0.0373069C129.14 2.10231 140.639 2.9373 151.67 6.1313C172.398 12.0343 192.363 20.7063 210.864 31.7803C221.557 38.3723 232.119 45.4323 241.069 54.3393C257.68 70.5403 274.248 87.4303 285.424 107.996C291.152 118.059 296.337 128.445 301.039 139.036C309.52 159.881 314.896 181.985 316.61 204.441C317.123 210.169 317.298 215.911 317.504 221.668C328.798 212.337 340.033 202.83 352.909 195.682C376.859 181.18 403.578 171.395 431.161 166.707C433.388 166.268 435.599 165.843 437.841 165.52C464.911 161.902 492.802 162.063 519.345 169.021C528.617 172.214 538.066 174.88 547.631 177.151C563.759 184.373 580.107 191.331 595.165 200.676C602.328 204.748 609.33 209.157 615.819 214.255C624.608 221.213 634.584 226.53 642.962 234.03C651.077 241.296 658.929 248.869 667.366 255.783C667.366 255.783 678.377 174.045 767.318 176.586C767.318 176.586 865.223 178.541 870.482 272.434C870.486 272.434 909.006 236.202 912.277 233.401Z" fill="#FDFCE9"/>
</svg>
