<svg width="1230" height="1174" viewBox="0 0 1230 1174" fill="none" xmlns="http://www.w3.org/2000/svg">
<path d="M596.498 1001.88L278.199 1169.17C248.899 1184.57 214.699 1159.67 220.299 1127.07L281.098 772.675C283.298 759.775 278.998 746.475 269.598 737.375L12.0985 486.375C-11.6015 463.275 1.49853 423.075 34.1985 418.275L390.098 366.575C403.098 364.675 414.298 356.475 420.098 344.775L579.199 22.275C593.799 -7.425 636.099 -7.425 650.799 22.275L809.898 344.775C815.698 356.575 826.898 364.675 839.898 366.575L1195.8 418.275C1228.5 423.075 1241.6 463.275 1217.9 486.375L960.398 737.375C950.998 746.575 946.698 759.775 948.898 772.675L1009.7 1127.07C1015.3 1159.67 981.099 1184.57 951.799 1169.17L633.498 1001.88C621.898 995.775 607.998 995.775 596.398 1001.88H596.498Z" fill="#FFCC00"/>
</svg>
